PathFileType	4	(X/Y/Z)	/Users/itak/Documents/Research/Walk-IL/dataset/trc/00135_00007.trc
DataRate	CameraRate	NumFrames	NumMarkers	Units	OrigDataRate	OrigDataStartFrame	OrigNumFrames
100.000000	100.000000	4	53	mm	100.000000	93	751
Frame#	Time	RPSI			LPSI			L3			STRN			T10			C7			CLAV			RBAK			LBAK			LSHO			LUPA			LAEL			LAOL			LWTS			LWPS			LFRA			LIFD			LHPS			LHTS			RSHO			RUPA			RAEL			RAOL			RWTS			RWPS			RFRA			RIFD			RHTS			RHPS			RBHD			LFHD			RFHD			LBHD			LHIP			RHIP			RASI			LASI			LKNE			LTHI			LANK			LTIP			LTOE			LMT1			LMT5			LHEE			RKNE			RTHI			RANK			RTIP			RTOE			RMT1			RMT5			RHEE			
		X1	Y1	Z1	X2	Y2	Z2	X3	Y3	Z3	X4	Y4	Z4	X5	Y5	Z5	X6	Y6	Z6	X7	Y7	Z7	X8	Y8	Z8	X9	Y9	Z9	X10	Y10	Z10	X11	Y11	Z11	X12	Y12	Z12	X13	Y13	Z13	X14	Y14	Z14	X15	Y15	Z15	X16	Y16	Z16	X17	Y17	Z17	X18	Y18	Z18	X19	Y19	Z19	X20	Y20	Z20	X21	Y21	Z21	X22	Y22	Z22	X23	Y23	Z23	X24	Y24	Z24	X25	Y25	Z25	X26	Y26	Z26	X27	Y27	Z27	X28	Y28	Z28	X29	Y29	Z29	X30	Y30	Z30	X31	Y31	Z31	X32	Y32	Z32	X33	Y33	Z33	X34	Y34	Z34	X35	Y35	Z35	X36	Y36	Z36	X37	Y37	Z37	X38	Y38	Z38	X39	Y39	Z39	X40	Y40	Z40	X41	Y41	Z41	X42	Y42	Z42	X43	Y43	Z43	X44	Y44	Z44	X45	Y45	Z45	X46	Y46	Z46	X47	Y47	Z47	X48	Y48	Z48	X49	Y49	Z49	X50	Y50	Z50	X51	Y51	Z51	X52	Y52	Z52	X53	Y53	Z53	

94	0.93	281.2627868652344	1113.081176757812	1136.582885742188	294.0870666503906	1124.532104492188	1270.499755859375	293.9343872070312	1155.0224609375	1206.743774414062	71.50261688232422	1349.681030273438	1226.913940429688	326.98828125	1308.59716796875	1205.067626953125	283.0783996582031	1598.156982421875	1219.765380859375	103.2841720581055	1485.919677734375	1225.010009765625	337.6533203125	1413.755615234375	1132.60107421875	295.8280944824219	1580.536743164062	1320.937622070312	215.5254516601562	1567.823486328125	1396.425415039062	245.7527160644531	1437.846923828125	1466.806518554688	241.5951080322266	1216.578735351562	1487.000610351562	301.8338317871094	1206.817993164062	1424.06201171875	150.1108703613281	953.0804443359375	1449.849609375	235.2712097167969	932.7401733398438	1469.705444335938	230.7896728515625	1100.11962890625	1491.304931640625	148.0994873046875	760.9620361328125	1421.268920898438	210.5680389404297	855.0478515625	1470.895751953125	140.8785400390625	861.7037353515625	1460.12060546875	219.31298828125	1572.735229492188	1042.044067382812	238.9230651855469	1499.920532226562	979.0108642578125	273.843994140625	1208.256225585938	961.9248657226562	278.7406616210938	1208.29345703125	1058.305053710938	143.6478271484375	957.6226196289062	971.6683349609375	220.7822265625	944.828369140625	943.9197387695312	255.5596008300781	1133.640747070312	946.1527709960938	130.3565521240234	762.8720092773438	992.5667114257812	120.0320281982422	847.227294921875	966.0377807617188	189.1099700927734	843.2260131835938	939.605712890625	238.4151153564453	1764.987548828125	1140.59033203125	48.17002487182617	1826.363037109375	1234.61474609375	70.50342559814453	1816.316040039062	1107.732788085938	221.3258666992188	1780.35302734375	1274.554077148438	222.4721221923828	1036.861694335938	1391.887573242188	134.4818725585938	1017.287475585938	1040.629638671875	64.70153045654297	1090.772827148438	1102.026245117188	104.3242034912109	1096.482543945312	1367.014404296875	228.9828186035156	534.5454711914062	1354.070190429688	241.9577331542969	681.27197265625	1383.433349609375	377.7810363769531	41.79761505126953	1313.542358398438	349.6348266601562	294.5360412597656	1361.417724609375	148.5624694824219	44.62054824829102	1252.150146484375	228.6519165039062	49.09846115112305	1219.85791015625	251.4413909912109	39.67510223388672	1336.651123046875	447.1982116699219	43.47322463989258	1252.078735351562	-67.93799591064453	577.1707763671875	1106.6826171875	41.2147216796875	834.0068969726562	1066.024536132812	165.7784576416016	97.06978607177734	1091.751831054688	-17.19908905029297	443.873779296875	1089.215209960938	-54.83219528198242	70.94101715087891	1140.239379882812	2.115843296051025	61.37353897094727	1184.098266601562	38.22203063964844	70.49294281005859	1070.680541992188	220.3587951660156	112.7443161010742	1140.2119140625	
95	0.9400000000000001	277.7417602539062	1112.7216796875	1136.317504882812	290.5337829589844	1124.169311523438	1270.201538085938	290.4150085449219	1154.718994140625	1206.486938476562	67.57267761230469	1348.986450195312	1226.737060546875	323.1618957519531	1308.38037109375	1204.852661132812	278.6123046875	1597.826538085938	1219.5048828125	99.17955780029297	1485.198852539062	1224.755981445312	333.5993957519531	1413.478637695312	1132.505859375	291.3227844238281	1580.309814453125	1320.694580078125	210.9773101806641	1567.536743164062	1396.17626953125	241.4794158935547	1437.694091796875	1466.6865234375	237.9954528808594	1216.418579101562	1487.072021484375	298.3093872070312	1206.745483398438	1424.163940429688	147.5203399658203	952.6143188476562	1450.086303710938	232.7296295166016	932.5639038085938	1469.945678710938	227.6185607910156	1099.943359375	1491.415893554688	146.0308837890625	760.4375610351562	1421.4501953125	208.2919464111328	854.7840576171875	1471.166625976562	138.5767517089844	861.2008056640625	1460.386108398438	214.9936218261719	1572.109130859375	1041.767944335938	234.7942047119141	1499.2421875	978.82958984375	270.2857666015625	1207.6484375	962.1104125976562	275.1315307617188	1207.817626953125	1058.494018554688	140.9870910644531	956.5517578125	972.046875	218.1817626953125	944.0443115234375	944.3355102539062	252.2525482177734	1132.974853515625	946.411865234375	128.3616333007812	761.7613525390625	993.1663818359375	117.8236236572266	846.0571899414062	966.5160522460938	186.8889465332031	842.31005859375	940.1007690429688	234.0111999511719	1764.276000976562	1140.03515625	43.30191040039062	1825.789184570312	1233.021484375	66.20406341552734	1815.276489257812	1106.230102539062	216.3297729492188	1780.082885742188	1273.877075195312	219.0825958251953	1036.376586914062	1391.620239257812	130.9882965087891	1017.033264160156	1040.427368164062	61.11382675170898	1090.222290039062	1101.871826171875	100.8769912719727	1095.820434570312	1366.858520507812	227.3960571289062	534.2110595703125	1353.96533203125	239.8305511474609	680.9874877929688	1383.155517578125	377.7722778320312	41.83363342285156	1313.477783203125	349.0242004394531	294.6941223144531	1361.193603515625	148.4519500732422	44.66447830200195	1252.168823242188	228.6202392578125	48.87882232666016	1219.717163085938	251.5173187255859	39.82731246948242	1336.753662109375	447.1878662109375	43.71942138671875	1251.93798828125	-73.20033264160156	578.1751098632812	1104.990356445312	37.49535751342773	834.4085083007812	1065.265625	147.6472625732422	91.96875	1094.407836914062	-25.26184844970703	443.5380859375	1088.387084960938	-74.59055328369141	71.62648773193359	1139.23583984375	-18.45694732666016	60.40691757202148	1183.522827148438	19.77954864501953	69.45723724365234	1070.9716796875	201.7341461181641	106.0558776855469	1143.794189453125	
96	0.9500000000000001	274.0999450683594	1112.289794921875	1136.035034179688	286.8377990722656	1123.760498046875	1269.88427734375	286.7655029296875	1154.346801757812	1206.206176757812	63.54076385498047	1348.2177734375	1226.467529296875	319.2095947265625	1308.09326171875	1204.598876953125	274.0332641601562	1597.42578125	1219.195434570312	94.9261474609375	1484.435302734375	1224.406372070312	329.4493103027344	1413.12890625	1132.374267578125	286.6934204101562	1580.012573242188	1320.405395507812	206.2961578369141	1567.177856445312	1395.863037109375	237.0520477294922	1437.476806640625	1466.516845703125	234.2400817871094	1216.202514648438	1487.109741210938	294.6474914550781	1206.601806640625	1424.258056640625	144.7600250244141	952.0875244140625	1450.253295898438	230.0177001953125	932.3197631835938	1470.164672851562	224.2816162109375	1099.707153320312	1491.497436523438	143.8221588134766	759.8561401367188	1421.60986328125	205.8357238769531	854.4636840820312	1471.413452148438	136.1157073974609	860.6446533203125	1460.5908203125	210.6083221435547	1571.41845703125	1041.43310546875	230.6169128417969	1498.496948242188	978.5949096679688	266.67041015625	1206.967163085938	962.2747192382812	271.4352111816406	1207.275512695312	1058.661743164062	138.2071838378906	955.4300537109375	972.393310546875	215.4648284912109	943.1961669921875	944.7420654296875	248.8802337646484	1132.23193359375	946.6468505859375	126.1733779907227	760.615966796875	993.7544555664062	115.4660568237305	844.8570556640625	966.9545288085938	184.5380706787109	841.3391723632812	940.5886840820312	229.4761505126953	1763.50927734375	1139.443237304688	38.32238388061523	1825.1328125	1231.394775390625	61.79042816162109	1814.174072265625	1104.672119140625	211.2214965820312	1779.735107421875	1273.160278320312	215.5352325439453	1035.859497070312	1391.3251953125	127.4730911254883	1016.658264160156	1040.211669921875	57.42909240722656	1089.585571289062	1101.630615234375	97.27970886230469	1095.109252929688	1366.634521484375	225.7064056396484	533.8432006835938	1353.853881835938	237.5963439941406	680.6868896484375	1382.86865234375	377.7702941894531	41.88246917724609	1313.41357421875	348.3597412109375	294.8341674804688	1360.9677734375	148.3561248779297	44.70247268676758	1252.204833984375	228.581787109375	48.6677360534668	1219.629028320312	251.6144256591797	40.01975631713867	1336.864990234375	447.1706237792969	43.9674186706543	1251.793334960938	-78.14460754394531	578.8880615234375	1103.04345703125	33.86423110961914	834.6295166015625	1064.406982421875	128.9547271728516	86.66415405273438	1097.239990234375	-33.19443130493164	442.9369201660156	1087.369140625	-94.74606323242188	72.28052520751953	1138.27783203125	-39.49024963378906	59.52016830444336	1183.052978515625	0.9267448782920837	68.24697875976562	1071.41845703125	182.5175323486328	99.19631195068359	1147.547729492188	
97	0.96	270.3254699707031	1111.782958984375	1135.73193359375	282.9949645996094	1123.305297851562	1269.544189453125	282.9783325195312	1153.901245117188	1205.8984375	59.40216445922852	1347.3740234375	1226.100708007812	315.1264953613281	1307.732055664062	1204.305541992188	269.3425903320312	1596.949829101562	1218.833374023438	90.53032684326172	1483.626586914062	1223.95849609375	325.2030944824219	1412.698852539062	1132.201782226562	281.9431457519531	1579.64111328125	1320.065307617188	201.487060546875	1566.743896484375	1395.480102539062	232.4739685058594	1437.189331054688	1466.292236328125	230.3303527832031	1215.927490234375	1487.10205078125	290.8422241210938	1206.39111328125	1424.325561523438	141.8304138183594	951.4993286132812	1450.358764648438	227.1284484863281	931.9994506835938	1470.349975585938	220.7801361083984	1099.407104492188	1491.542724609375	141.4660797119141	759.214111328125	1421.760375976562	203.1990814208984	854.0833129882812	1471.63671875	133.4887237548828	860.032470703125	1460.742431640625	206.1622009277344	1570.658813476562	1041.034423828125	226.3950500488281	1497.6826171875	978.302490234375	263.00537109375	1206.209106445312	962.4144287109375	267.6552734375	1206.663452148438	1058.805297851562	135.3038482666016	954.2650756835938	972.7008056640625	212.6270446777344	942.2810668945312	945.1363525390625	245.4473724365234	1131.409423828125	946.8560791015625	123.7936019897461	759.4413452148438	994.321044921875	112.9459991455078	843.62841796875	967.3468627929688	182.0484466552734	840.3131713867188	941.0681762695312	224.8113250732422	1762.681274414062	1138.815185546875	33.23514175415039	1824.38818359375	1229.740112304688	57.25498580932617	1812.998779296875	1103.055053710938	206.0039978027344	1779.308227539062	1272.39892578125	211.8301696777344	1035.312377929688	1391.003295898438	123.9375991821289	1016.153686523438	1039.986206054688	53.63765335083008	1088.859252929688	1101.311157226562	93.523193359375	1094.3447265625	1366.344360351562	223.9240570068359	533.4364624023438	1353.740112304688	235.2644500732422	680.3666381835938	1382.576782226562	377.7720947265625	41.9418830871582	1313.346435546875	347.6527404785156	294.9691772460938	1360.757202148438	148.2643432617188	44.71845626831055	1252.259521484375	228.5268859863281	48.47209167480469	1219.59375	251.7177734375	40.2171745300293	1336.973510742188	447.1491088867188	44.21405792236328	1251.649536132812	-82.76235198974609	579.2904052734375	1100.830200195312	30.29923820495605	834.6637573242188	1063.439819335938	109.7612075805664	81.23731994628906	1100.231567382812	-40.97686004638672	442.0736083984375	1086.162841796875	-115.1953353881836	72.97525787353516	1137.35107421875	-60.90773773193359	58.77680969238281	1182.697021484375	-18.27402687072754	66.89128112792969	1072.015747070312	162.7675018310547	92.25192260742188	1151.4228515625	
